<svg width="476" height="421" viewBox="0 0 476 421" fill="none" xmlns="http://www.w3.org/2000/svg">
<path opacity="0.1" d="M358.826 34.0083C252.762 -44.2316 229.548 40.4437 108.075 16.0572C-13.3977 -8.32926 21.4235 164.577 2.0116 262.462C-17.4003 360.347 108.075 355.435 189.124 407.596C270.173 459.756 482.1 350.524 408.856 237.906C335.612 125.288 464.889 112.248 358.826 34.0083Z" fill="#0083FA"/>
<circle cx="453.5" cy="163.5" r="22.5" fill="#E6F3FF"/>
<g clip-path="url(#clip0_133_376)">
<path d="M344.574 303.525H298.074V240.593L338.28 262.619L344.574 303.525Z" fill="#2F2E41"/>
<path d="M306.664 292.418C323.338 292.418 336.854 278.902 336.854 262.228C336.854 245.555 323.338 232.039 306.664 232.039C289.991 232.039 276.475 245.555 276.475 262.228C276.475 278.902 289.991 292.418 306.664 292.418Z" fill="#FFB6B6"/>
<path d="M289.333 296.882L287.969 283.095L315.205 278.002L331.288 317.16L303.318 349.326L283.39 310.168L289.333 296.882Z" fill="#FFB6B6"/>
<path d="M371.792 328.712C371.453 329.065 371.107 329.415 370.761 329.761C369.663 330.859 368.544 331.925 367.401 332.96C350.27 348.497 328.289 357 305 357C283.53 357 263.171 349.773 246.7 336.47C246.69 336.463 246.683 336.456 246.672 336.446C246.172 336.043 245.68 335.634 245.187 335.218C245.274 334.967 245.368 334.718 245.463 334.474C250.76 320.674 261.22 313.923 267.569 310.968C270.716 309.504 272.852 308.969 272.852 308.969L280.306 295.543L285.554 305.333L289.421 312.549L305.287 342.151L318.975 308.07L323.216 297.504L324.303 294.798L329.474 298.823L334.369 302.63L344.225 304.805L352.22 306.57L363.08 308.969C367.471 312.545 370.142 319.349 371.635 327.803C371.691 328.104 371.743 328.408 371.792 328.712Z" fill="#0083FA"/>
<path d="M290.784 227.92C294.462 221.743 301.216 217.504 308.377 216.88C315.539 216.255 322.925 219.26 327.616 224.707C330.412 227.953 332.245 231.929 334.97 235.234C340.834 242.347 350.833 246.506 353.394 255.362C354.512 259.227 353.955 263.352 353.39 267.335C352.905 270.749 352.42 274.163 351.935 277.576C351.558 280.233 351.196 283.034 352.192 285.525C353.361 288.448 356.158 290.363 357.966 292.94C361.043 297.325 360.818 303.745 357.442 307.903C355.978 309.707 354.036 311.067 352.501 312.811C350.966 314.554 349.828 316.938 350.47 319.17C351.702 323.447 358.409 324.472 359.144 328.861C359.52 331.105 357.97 333.346 355.94 334.372C353.909 335.398 351.518 335.428 349.26 335.154C340.675 334.11 332.727 328.746 328.547 321.176C324.368 313.605 324.063 304.021 327.754 296.201C330.786 289.778 336.42 284.102 336.358 277C336.325 273.13 334.55 269.516 332.815 266.058C329.263 258.98 325.711 251.901 322.159 244.823C320.256 241.031 318.048 236.945 314.131 235.316C311.104 234.058 307.669 234.546 304.431 235.061C301.193 235.576 297.763 236.077 294.727 234.84C291.691 233.603 289.397 229.928 290.843 226.985" fill="#2F2E41"/>
<path d="M296.074 228.243C290.242 226.323 283.699 229.405 279.75 234.107C275.801 238.81 273.886 244.843 272.061 250.706C271.016 254.064 269.971 257.423 268.925 260.781C267.942 263.941 266.959 267.1 265.976 270.259C264.819 273.975 263.653 277.923 264.602 281.697C265.289 284.426 267.054 286.904 267.092 289.717C267.132 292.656 265.291 295.236 263.679 297.693C262.066 300.15 260.552 303.069 261.32 305.906C262.489 310.221 268.488 312.593 268.159 317.051C268.05 318.539 267.189 319.915 267.205 321.407C267.225 323.305 268.711 324.945 270.452 325.702C272.193 326.458 274.152 326.499 276.05 326.466C281.871 326.363 287.682 325.672 293.366 324.405C295.552 323.918 297.776 323.321 299.596 322.015C301.416 320.709 302.774 318.545 302.537 316.317C302.168 312.846 298.435 310.877 296.552 307.937C294.702 305.05 294.745 301.393 293.947 298.058C292.851 293.475 290.143 289.474 288.11 285.222C280.469 269.239 283.144 248.866 294.653 235.397C295.67 234.206 296.782 233.008 297.207 231.5C297.631 229.992 297.084 228.071 295.609 227.544" fill="#2F2E41"/>
<path d="M370.761 198.239C353.196 180.674 329.841 171 305 171C280.159 171 256.804 180.674 239.239 198.239C221.674 215.804 212 239.159 212 264C212 286.673 220.059 308.109 234.827 325.034C236.236 326.653 237.708 328.229 239.239 329.761C239.599 330.121 239.963 330.481 240.33 330.831C241.309 331.778 242.305 332.705 243.319 333.603C243.935 334.152 244.557 334.69 245.186 335.218C245.679 335.634 246.172 336.044 246.672 336.446C246.683 336.456 246.69 336.463 246.7 336.47C263.171 349.773 283.53 357 305 357C328.288 357 350.269 348.497 367.401 332.96C368.544 331.925 369.663 330.859 370.761 329.761C371.107 329.415 371.453 329.065 371.792 328.712C372.736 327.74 373.652 326.751 374.547 325.747C389.71 308.713 398 286.995 398 264C398 239.159 388.326 215.804 370.761 198.239ZM374.32 324.877C373.446 325.869 372.551 326.848 371.635 327.803C370.208 329.289 368.736 330.729 367.216 332.117C366.639 332.649 366.055 333.166 365.464 333.68C359.496 338.872 352.853 343.305 345.689 346.836C343.175 348.078 340.599 349.207 337.963 350.217C327.722 354.147 316.608 356.301 305 356.301C293.798 356.301 283.058 354.294 273.118 350.623C269.038 349.119 265.094 347.333 261.307 345.288C260.752 344.987 260.199 344.683 259.65 344.372C256.762 342.735 253.969 340.949 251.287 339.019C249.284 337.582 247.34 336.068 245.463 334.474C244.805 333.918 244.155 333.355 243.515 332.778C242.473 331.852 241.452 330.897 240.456 329.918C238.568 328.069 236.764 326.142 235.04 324.139C221.122 307.972 212.699 286.953 212.699 264C212.699 213.105 254.105 171.699 305 171.699C355.895 171.699 397.301 213.105 397.301 264C397.301 287.306 388.62 308.619 374.32 324.877Z" fill="#3F3D56"/>
</g>
<g clip-path="url(#clip1_133_376)">
<path d="M135.664 152.418C152.338 152.418 165.854 138.902 165.854 122.229C165.854 105.555 152.338 92.0391 135.664 92.0391C118.991 92.0391 105.475 105.555 105.475 122.229C105.475 138.902 118.991 152.418 135.664 152.418Z" fill="#FFB6B6"/>
<path d="M118.333 156.883L116.969 143.096L144.205 138.003L160.288 177.161L132.318 209.327L112.39 170.169L118.333 156.883Z" fill="#FFB6B6"/>
<path d="M116.532 149.997L122.486 151.343C122.486 151.343 117.805 136.499 119.394 135.082C120.983 133.665 124.876 135.898 124.876 135.898L128.968 140.485L133.951 135.411C133.951 135.411 139.362 128.684 141.48 126.794C143.598 124.905 140.196 117.892 140.196 117.892C140.196 117.892 171.624 109.417 159.93 94.1733C159.93 94.1733 153.073 82.2216 150.84 86.1149C148.607 90.0082 145.945 83.8248 145.945 83.8248L137.815 85.3709C137.815 85.3709 121.769 75.9099 106.54 96.1496C91.3106 116.389 116.532 149.997 116.532 149.997Z" fill="#2F2E41"/>
<path d="M192.443 196.355C175.944 209.731 155.533 217 134 217C114.337 217 95.6076 210.937 79.9409 199.7C79.9689 199.407 79.9969 199.117 80.0213 198.826C80.4374 194.281 80.808 189.862 81.0527 186.198C82.0002 171.972 115.19 162.49 115.19 162.49C115.19 162.49 115.34 162.64 115.641 162.903C117.473 164.511 124.91 170.343 137.951 171.972C149.579 173.426 153.407 166.528 154.565 163.224C154.914 162.217 155.019 161.542 155.019 161.542L189.156 177.664C191.384 180.845 192.254 187.698 192.425 195.4C192.432 195.718 192.439 196.033 192.443 196.355Z" fill="#0083FA"/>
<path d="M199.761 58.2392C182.196 40.6741 158.841 31 134 31C109.159 31 85.8043 40.6741 68.2392 58.2392C50.6741 75.8043 41 99.1592 41 124C41 146.673 49.0589 168.109 63.827 185.034C65.2359 186.653 66.7079 188.229 68.2392 189.761C68.5993 190.121 68.9629 190.481 69.3301 190.831C70.309 191.778 71.3054 192.705 72.3193 193.603C72.9347 194.152 73.557 194.69 74.1863 195.218C74.6793 195.634 75.1723 196.044 75.6722 196.446C75.6827 196.456 75.6897 196.463 75.7002 196.47C77.0882 197.589 78.5007 198.666 79.9411 199.701C95.6078 210.938 114.337 217 134 217C155.533 217 175.944 209.731 192.443 196.355C193.789 195.264 195.107 194.131 196.401 192.96C197.544 191.925 198.663 190.859 199.761 189.761C200.107 189.415 200.453 189.065 200.792 188.712C201.736 187.74 202.652 186.751 203.547 185.747C218.71 168.713 227 146.995 227 124C227 99.1592 217.326 75.8043 199.761 58.2392ZM203.32 184.877C202.446 185.869 201.551 186.848 200.635 187.803C199.208 189.289 197.736 190.729 196.216 192.117C195.639 192.649 195.055 193.166 194.464 193.68C193.793 194.264 193.114 194.837 192.426 195.4C186.996 199.858 181.049 203.704 174.689 206.836C172.175 208.078 169.599 209.207 166.963 210.217C156.722 214.147 145.608 216.301 134 216.301C122.798 216.301 112.058 214.294 102.118 210.623C98.0377 209.119 94.0939 207.333 90.3075 205.288C89.7516 204.987 89.1992 204.683 88.6503 204.372C85.7624 202.735 82.9689 200.949 80.2873 199.019C80.1999 198.956 80.109 198.889 80.0216 198.827C78.1126 197.449 76.2561 195.998 74.4625 194.474C73.8052 193.918 73.1549 193.355 72.5151 192.778C71.4732 191.852 70.4524 190.897 69.4559 189.918C67.568 188.069 65.7639 186.142 64.0402 184.139C50.1217 167.972 41.6992 146.953 41.6992 124C41.6992 73.1052 83.1052 31.6992 134 31.6992C184.895 31.6992 226.301 73.1052 226.301 124C226.301 147.306 217.62 168.619 203.32 184.877Z" fill="#3F3D56"/>
</g>
<defs>
<clipPath id="clip0_133_376">
<rect width="186" height="186" fill="white" transform="translate(212 171)"/>
</clipPath>
<clipPath id="clip1_133_376">
<rect width="186" height="186" fill="white" transform="translate(41 31)"/>
</clipPath>
</defs>
</svg>
