<svg width="680" height="479" viewBox="0 0 680 479" fill="none" xmlns="http://www.w3.org/2000/svg">
<g clip-path="url(#clip0_133_32)">
<path d="M150.682 47.9819H107.317C103.148 47.9857 99.1505 49.6429 96.2025 52.5899C93.2545 55.5368 91.5967 59.5326 91.5929 63.7002V110.698C91.0385 110.665 90.4841 110.615 89.9377 110.549C79.6642 109.468 69.8969 105.54 61.7371 99.2077C53.5773 92.8751 47.3494 84.3897 43.7558 74.7083C40.1621 65.0268 39.3455 54.5343 41.398 44.4137C43.4505 34.2932 48.2905 24.947 55.3724 17.429C62.4542 9.91109 71.4963 4.5203 81.479 1.86446C91.4617 -0.791371 101.988 -0.60663 111.872 2.39787C121.755 5.40237 130.602 11.1071 137.415 18.869C144.229 26.6308 148.738 36.141 150.434 46.3274C150.525 46.8734 150.607 47.4277 150.682 47.9819Z" fill="#E6F3FF"/>
<path d="M662.621 46.3271H107.317C102.709 46.3322 98.2919 48.1641 95.0338 51.4211C91.7757 54.678 89.943 59.0939 89.938 63.6999V356.555C89.943 361.161 91.7757 365.577 95.0338 368.834C98.2919 372.091 102.709 373.923 107.317 373.928H662.621C667.229 373.923 671.646 372.091 674.904 368.834C678.162 365.577 679.995 361.161 680 356.555V63.6999C679.995 59.0939 678.162 54.678 674.904 51.4211C671.646 48.1641 667.229 46.3322 662.621 46.3271ZM678.345 356.555C678.341 360.723 676.683 364.719 673.735 367.665C670.787 370.612 666.79 372.27 662.621 372.273H107.317C103.148 372.27 99.1507 370.612 96.2027 367.665C93.2548 364.719 91.5969 360.723 91.5931 356.555V63.6999C91.5969 59.5323 93.2548 55.5365 96.2027 52.5896C99.1507 49.6427 103.148 47.9855 107.317 47.9817H662.621C666.79 47.9855 670.787 49.6427 673.735 52.5896C676.683 55.5365 678.341 59.5323 678.345 63.6999V356.555Z" fill="#3F3D56"/>
<path d="M635.311 93.7879H134.627C134.407 93.7879 134.197 93.7007 134.042 93.5456C133.887 93.3904 133.799 93.18 133.799 92.9606C133.799 92.7412 133.887 92.5308 134.042 92.3756C134.197 92.2205 134.407 92.1333 134.627 92.1333H635.311C635.53 92.1333 635.741 92.2205 635.896 92.3756C636.051 92.5308 636.138 92.7412 636.138 92.9606C636.138 93.18 636.051 93.3904 635.896 93.5456C635.741 93.7007 635.53 93.7879 635.311 93.7879Z" fill="#3F3D56"/>
<path d="M276.143 338.355C275.923 338.355 275.713 338.268 275.557 338.113C275.402 337.958 275.315 337.747 275.315 337.528V65.3546C275.315 65.1352 275.402 64.9248 275.557 64.7696C275.713 64.6145 275.923 64.5273 276.143 64.5273C276.362 64.5273 276.572 64.6145 276.728 64.7696C276.883 64.9248 276.97 65.1352 276.97 65.3546V337.528C276.97 337.747 276.883 337.958 276.728 338.113C276.572 338.268 276.362 338.355 276.143 338.355Z" fill="#3F3D56"/>
<path d="M401.107 338.355C400.887 338.355 400.677 338.268 400.522 338.113C400.366 337.958 400.279 337.747 400.279 337.528V65.3546C400.279 65.1352 400.366 64.9248 400.522 64.7696C400.677 64.6145 400.887 64.5273 401.107 64.5273C401.326 64.5273 401.537 64.6145 401.692 64.7696C401.847 64.9248 401.934 65.1352 401.934 65.3546V337.528C401.934 337.747 401.847 337.958 401.692 338.113C401.537 338.268 401.326 338.355 401.107 338.355Z" fill="#3F3D56"/>
<path d="M526.071 338.355C525.851 338.355 525.641 338.268 525.486 338.113C525.33 337.958 525.243 337.747 525.243 337.528V65.3546C525.243 65.1352 525.33 64.9248 525.486 64.7696C525.641 64.6145 525.851 64.5273 526.071 64.5273C526.29 64.5273 526.501 64.6145 526.656 64.7696C526.811 64.9248 526.898 65.1352 526.898 65.3546V337.528C526.898 337.747 526.811 337.958 526.656 338.113C526.501 338.268 526.29 338.355 526.071 338.355Z" fill="#3F3D56"/>
<path d="M195.798 179.177H165.558C164.571 179.176 163.624 178.784 162.926 178.086C162.228 177.388 161.835 176.442 161.834 175.455V139.783C161.835 138.796 162.228 137.85 162.926 137.152C163.624 136.454 164.571 136.061 165.558 136.06H195.798C196.785 136.061 197.732 136.454 198.43 137.152C199.128 137.85 199.521 138.796 199.522 139.783V175.455C199.521 176.442 199.128 177.388 198.43 178.086C197.732 178.784 196.785 179.176 195.798 179.177Z" fill="#0083FA"/>
<path d="M238.832 280.932H208.592C207.605 280.931 206.658 280.539 205.96 279.841C205.262 279.143 204.869 278.196 204.868 277.209V241.538C204.869 240.551 205.262 239.604 205.96 238.906C206.658 238.209 207.605 237.816 208.592 237.815H238.832C239.819 237.816 240.766 238.209 241.464 238.906C242.162 239.604 242.555 240.551 242.556 241.538V277.209C242.555 278.196 242.162 279.143 241.464 279.841C240.766 280.539 239.819 280.931 238.832 280.932Z" fill="#0083FA"/>
<path d="M336.486 200.687H306.247C305.259 200.685 304.313 200.293 303.614 199.595C302.916 198.897 302.524 197.951 302.522 196.964V161.292C302.524 160.305 302.916 159.359 303.614 158.661C304.313 157.963 305.259 157.57 306.247 157.569H336.486C337.474 157.57 338.42 157.963 339.118 158.661C339.816 159.359 340.209 160.305 340.21 161.292V196.964C340.209 197.951 339.816 198.897 339.118 199.595C338.42 200.293 337.474 200.685 336.486 200.687Z" fill="#0083FA"/>
<path d="M463.105 161.805H432.866C431.878 161.804 430.932 161.411 430.234 160.713C429.535 160.015 429.143 159.069 429.142 158.082V122.41C429.143 121.423 429.535 120.477 430.234 119.779C430.932 119.081 431.878 118.689 432.866 118.688H463.105C464.093 118.689 465.039 119.081 465.737 119.779C466.436 120.477 466.828 121.423 466.829 122.41V158.082C466.828 159.069 466.436 160.015 465.737 160.713C465.039 161.411 464.093 161.804 463.105 161.805Z" fill="#0083FA"/>
<path d="M579.794 161.805H549.554C548.567 161.804 547.62 161.411 546.922 160.713C546.224 160.015 545.831 159.069 545.83 158.082V122.41C545.831 121.423 546.224 120.477 546.922 119.779C547.62 119.081 548.567 118.689 549.554 118.688H579.794C580.781 118.689 581.728 119.081 582.426 119.779C583.124 120.477 583.517 121.423 583.518 122.41V158.082C583.517 159.069 583.124 160.015 582.426 160.713C581.728 161.411 580.781 161.804 579.794 161.805Z" fill="#0083FA"/>
<path d="M633.586 171.732H603.346C602.359 171.731 601.412 171.338 600.714 170.64C600.016 169.942 599.623 168.996 599.622 168.009V132.337C599.623 131.35 600.016 130.404 600.714 129.706C601.412 129.008 602.359 128.616 603.346 128.615H633.586C634.573 128.616 635.52 129.008 636.218 129.706C636.916 130.404 637.309 131.35 637.31 132.337V168.009C637.309 168.996 636.916 169.942 636.218 170.64C635.52 171.338 634.573 171.731 633.586 171.732Z" fill="#E6E6E6"/>
<path d="M609.586 235.432H579.347C578.359 235.431 577.413 235.038 576.715 234.341C576.016 233.643 575.624 232.696 575.623 231.709V196.038C575.624 195.051 576.016 194.104 576.715 193.407C577.413 192.709 578.359 192.316 579.347 192.315H609.586C610.574 192.316 611.52 192.709 612.218 193.407C612.917 194.104 613.309 195.051 613.31 196.038V231.709C613.309 232.696 612.917 233.643 612.218 234.341C611.52 235.038 610.574 235.431 609.586 235.432Z" fill="#E6E6E6"/>
<path d="M506.967 222.195H476.727C475.74 222.194 474.793 221.802 474.095 221.104C473.397 220.406 473.004 219.46 473.003 218.473V182.801C473.004 181.814 473.397 180.868 474.095 180.17C474.793 179.472 475.74 179.079 476.727 179.078H506.967C507.954 179.079 508.901 179.472 509.599 180.17C510.297 180.868 510.69 181.814 510.691 182.801V218.473C510.69 219.46 510.297 220.406 509.599 221.104C508.901 221.802 507.954 222.194 506.967 222.195Z" fill="#FF6584"/>
<path d="M448.209 235.432H417.969C416.982 235.431 416.035 235.038 415.337 234.341C414.639 233.643 414.246 232.696 414.245 231.709V196.038C414.246 195.051 414.639 194.104 415.337 193.407C416.035 192.709 416.982 192.316 417.969 192.315H448.209C449.196 192.316 450.143 192.709 450.841 193.407C451.539 194.104 451.932 195.051 451.933 196.038V231.709C451.932 232.696 451.539 233.643 450.841 234.341C450.143 235.038 449.196 235.431 448.209 235.432Z" fill="#E6E6E6"/>
<path d="M321.59 291.687H291.35C290.363 291.685 289.416 291.293 288.718 290.595C288.02 289.897 287.627 288.951 287.626 287.964V252.292C287.627 251.305 288.02 250.359 288.718 249.661C289.416 248.963 290.363 248.57 291.35 248.569H321.59C322.577 248.57 323.524 248.963 324.222 249.661C324.92 250.359 325.313 251.305 325.314 252.292V287.964C325.313 288.951 324.92 289.897 324.222 290.595C323.524 291.293 322.577 291.685 321.59 291.687Z" fill="#E6E6E6"/>
<path d="M168.488 244.532H138.248C137.261 244.531 136.314 244.138 135.616 243.44C134.918 242.742 134.525 241.796 134.524 240.809V205.137C134.525 204.15 134.918 203.204 135.616 202.506C136.314 201.808 137.261 201.416 138.248 201.415H168.488C169.475 201.416 170.422 201.808 171.12 202.506C171.818 203.204 172.211 204.15 172.212 205.137V240.809C172.211 241.796 171.818 242.742 171.12 243.44C170.422 244.138 169.475 244.531 168.488 244.532Z" fill="#FF6584"/>
<path d="M253.728 179.177H223.489C222.501 179.176 221.555 178.784 220.857 178.086C220.158 177.388 219.766 176.442 219.765 175.455V139.783C219.766 138.796 220.158 137.85 220.857 137.152C221.555 136.454 222.501 136.061 223.489 136.06H253.728C254.716 136.061 255.662 136.454 256.361 137.152C257.059 137.85 257.451 138.796 257.452 139.783V175.455C257.451 176.442 257.059 177.388 256.361 178.086C255.662 178.784 254.716 179.176 253.728 179.177Z" fill="#E6E6E6"/>
<path d="M228.971 80.2456H181.799C180.921 80.2456 180.079 79.897 179.458 79.2764C178.838 78.6559 178.489 77.8142 178.489 76.9365C178.489 76.0589 178.838 75.2172 179.458 74.5967C180.079 73.9761 180.921 73.6274 181.799 73.6274H228.971C229.849 73.6274 230.691 73.9761 231.312 74.5967C231.932 75.2172 232.281 76.0589 232.281 76.9365C232.281 77.8142 231.932 78.6559 231.312 79.2764C230.691 79.897 229.849 80.2456 228.971 80.2456Z" fill="#CCCCCC"/>
<path d="M362.211 80.2456H315.039C314.161 80.2456 313.319 79.897 312.698 79.2764C312.077 78.6559 311.729 77.8142 311.729 76.9365C311.729 76.0589 312.077 75.2172 312.698 74.5967C313.319 73.9761 314.161 73.6274 315.039 73.6274H362.211C363.089 73.6274 363.931 73.9761 364.551 74.5967C365.172 75.2172 365.521 76.0589 365.521 76.9365C365.521 77.8142 365.172 78.6559 364.551 79.2764C363.931 79.897 363.089 80.2456 362.211 80.2456Z" fill="#CCCCCC"/>
<path d="M487.175 80.2456H440.003C439.125 80.2456 438.283 79.897 437.662 79.2764C437.041 78.6559 436.692 77.8142 436.692 76.9365C436.692 76.0589 437.041 75.2172 437.662 74.5967C438.283 73.9761 439.125 73.6274 440.003 73.6274H487.175C488.052 73.6274 488.894 73.9761 489.515 74.5967C490.136 75.2172 490.485 76.0589 490.485 76.9365C490.485 77.8142 490.136 78.6559 489.515 79.2764C488.894 79.897 488.052 80.2456 487.175 80.2456Z" fill="#CCCCCC"/>
<path d="M603.863 80.2456H556.691C555.813 80.2456 554.971 79.897 554.35 79.2764C553.73 78.6559 553.381 77.8142 553.381 76.9365C553.381 76.0589 553.73 75.2172 554.35 74.5967C554.971 73.9761 555.813 73.6274 556.691 73.6274H603.863C604.741 73.6274 605.583 73.9761 606.204 74.5967C606.825 75.2172 607.173 76.0589 607.173 76.9365C607.173 77.8142 606.825 78.6559 606.204 79.2764C605.583 79.897 604.741 80.2456 603.863 80.2456Z" fill="#CCCCCC"/>
<path d="M123.316 322.547C122.106 322.429 120.936 322.046 119.889 321.427C118.842 320.807 117.943 319.966 117.257 318.962C116.57 317.958 116.113 316.815 115.916 315.615C115.718 314.415 115.787 313.186 116.116 312.016L94.9033 292.276L106.119 289.432L126.979 306.344C128.91 307.028 130.523 308.396 131.512 310.188C132.501 311.981 132.799 314.075 132.347 316.072C131.896 318.069 130.727 319.831 129.063 321.025C127.398 322.218 125.354 322.76 123.316 322.547Z" fill="#FFB8B8"/>
<path d="M152.609 468.447H162.755L167.581 429.327H152.607L152.609 468.447Z" fill="#FFB8B8"/>
<path d="M182.322 477.863L150.435 477.865L150.434 465.549L170.001 465.548C173.269 465.548 176.402 466.846 178.713 469.155C181.023 471.465 182.322 474.597 182.322 477.863Z" fill="#2F2E41"/>
<path d="M83.043 461.124L92.8481 463.733L107.58 427.171L93.1096 423.321L83.043 461.124Z" fill="#FFB8B8"/>
<path d="M109.333 477.867L78.5194 469.668L81.6883 457.767L100.597 462.798C103.755 463.638 106.449 465.698 108.087 468.524C109.726 471.349 110.174 474.71 109.333 477.867Z" fill="#2F2E41"/>
<path d="M165.483 461.04H150.001C149.023 461.044 148.08 460.681 147.356 460.024C146.632 459.366 146.18 458.462 146.09 457.489L136.692 359.927C136.623 359.211 136.307 358.542 135.799 358.033C135.291 357.524 134.622 357.208 133.906 357.138C133.19 357.068 132.472 357.249 131.875 357.65C131.278 358.051 130.839 358.647 130.633 359.335L103.345 450.501C103.056 451.47 102.405 452.29 101.526 452.79C100.647 453.29 99.6088 453.432 98.6279 453.186L84.2255 449.586C83.7228 449.46 83.2499 449.237 82.8341 448.928C82.4183 448.619 82.0677 448.231 81.8025 447.786C81.5374 447.341 81.3628 446.848 81.2891 446.335C81.2153 445.822 81.2437 445.3 81.3726 444.798C81.6078 443.88 104.885 352.948 105.088 352.013C110.362 313.158 116.671 302.746 120.061 297.153C120.342 296.69 120.6 296.264 120.832 295.862C121.122 295.358 122.911 290.365 124.046 287.122C124.193 286.594 124.448 286.103 124.795 285.679C125.142 285.255 125.573 284.908 126.061 284.659C140.304 277.377 156.969 282.418 161.737 284.136C162.528 284.414 163.206 284.941 163.672 285.638C177.976 307.206 170.957 432.472 169.404 457.364C169.339 458.36 168.898 459.294 168.17 459.977C167.442 460.659 166.481 461.039 165.483 461.04Z" fill="#2F2E41"/>
<path d="M125.53 213.921C136.756 213.921 145.856 204.824 145.856 193.602C145.856 182.381 136.756 173.284 125.53 173.284C114.304 173.284 105.204 182.381 105.204 193.602C105.204 204.824 114.304 213.921 125.53 213.921Z" fill="#FFB8B8"/>
<path d="M123.377 291.067L123.231 290.925C122.957 290.66 95.8745 264.138 99.3794 239.614C100.878 229.124 109.368 222.422 123.932 220.23C129.282 219.436 134.739 220.599 139.3 223.505C143.861 226.411 147.22 230.865 148.759 236.049L163.159 285.259L123.377 291.067Z" fill="#CCCCCC"/>
<path d="M109.516 309.931L90.2179 290.762C88.8984 289.444 87.9405 287.808 87.4361 286.013C86.9318 284.218 86.898 282.323 87.3382 280.511L96.6804 242.523C96.9602 241.385 97.4708 240.316 98.1805 239.383C98.8902 238.45 99.7839 237.672 100.806 237.098C101.829 236.524 102.958 236.166 104.125 236.046C105.291 235.926 106.47 236.047 107.588 236.401C109.719 237.087 111.498 238.576 112.55 240.552C113.602 242.527 113.843 244.835 113.223 246.985L103.387 280.404L119.292 297.476L109.516 309.931Z" fill="#CCCCCC"/>
<path d="M213.022 244.511C212.512 245.615 211.765 246.594 210.836 247.379C209.906 248.163 208.816 248.734 207.641 249.052C206.467 249.37 205.237 249.426 204.039 249.218C202.84 249.009 201.702 248.54 200.704 247.844L174.942 261.192L176.081 249.853L198.92 235.724C200.2 234.126 202.023 233.054 204.042 232.709C206.061 232.365 208.137 232.773 209.875 233.856C211.613 234.939 212.894 236.622 213.474 238.586C214.054 240.55 213.893 242.658 213.022 244.511Z" fill="#FFB8B8"/>
<path d="M197.891 252.951L172.777 263.8C171.106 264.516 169.278 264.791 167.469 264.597C165.661 264.403 163.933 263.747 162.451 262.693L130.516 239.819C129.563 239.137 128.76 238.266 128.157 237.26C127.554 236.255 127.164 235.137 127.011 233.974C126.858 232.812 126.945 231.631 127.267 230.504C127.589 229.377 128.139 228.328 128.883 227.422C130.312 225.699 132.356 224.6 134.582 224.358C136.808 224.116 139.041 224.75 140.807 226.125L168.19 247.669L189.956 239.251L197.891 252.951Z" fill="#CCCCCC"/>
<path d="M128.9 200.113C131.407 196.972 136.092 196.803 139.537 194.732C144.048 192.018 145.914 185.954 144.46 180.895C143.006 175.836 138.718 171.893 133.802 170.008C128.886 168.122 123.416 168.099 118.23 169.01C110.509 170.367 102.907 173.97 98.1974 180.235C93.4882 186.501 92.2897 195.677 96.5576 202.251C98.5192 205.273 101.547 207.767 102.33 211.283C103.358 215.898 100.12 220.35 96.6497 223.564C92.6966 227.226 88.1612 230.293 84.6979 234.421C81.2346 238.548 78.925 244.188 80.5054 249.338C81.8295 253.654 85.6827 256.833 89.9079 258.425C94.1331 260.017 98.7349 260.247 103.249 260.336C107.633 260.421 112.29 260.315 115.983 257.952C119.936 255.422 122.047 250.624 122.203 245.934C122.359 241.244 120.791 236.65 118.69 232.454C117.438 229.953 115.982 227.53 115.149 224.859C114.317 222.189 114.173 219.159 115.506 216.7C116.907 214.115 119.741 212.556 122.626 211.989C122.776 211.96 122.935 211.934 123.101 211.91C123.922 211.804 124.713 211.532 125.426 211.111C126.139 210.691 126.759 210.13 127.249 209.462C127.739 208.795 128.088 208.036 128.276 207.23C128.464 206.424 128.487 205.588 128.342 204.773C128.013 202.941 128.042 201.188 128.9 200.113Z" fill="#2F2E41"/>
<path d="M399.909 469.313H389.763L384.937 430.193L399.911 430.194L399.909 469.313Z" fill="#A0616A"/>
<path d="M382.516 466.415H402.083V478.731H370.196C370.196 477.113 370.514 475.512 371.134 474.018C371.753 472.523 372.66 471.166 373.804 470.022C374.948 468.879 376.306 467.971 377.801 467.353C379.296 466.734 380.898 466.415 382.516 466.415Z" fill="#2F2E41"/>
<path d="M473.526 457.825L464.298 462.038L443.646 428.46L457.268 422.24L473.526 457.825Z" fill="#A0616A"/>
<path d="M456.501 462.412L474.299 454.286L479.418 465.488L450.413 478.731C449.741 477.26 449.365 475.671 449.307 474.055C449.249 472.438 449.511 470.827 450.076 469.311C450.641 467.796 451.5 466.407 452.602 465.223C453.704 464.039 455.029 463.084 456.501 462.412Z" fill="#2F2E41"/>
<path d="M443.979 337.41C444.952 336.678 445.751 335.743 446.323 334.669C446.894 333.595 447.223 332.41 447.286 331.195C447.349 329.981 447.145 328.767 446.689 327.64C446.232 326.513 445.533 325.499 444.643 324.671L456.569 297.619L441.417 300.186L432.415 325.481C431.122 327.07 430.457 329.077 430.546 331.123C430.635 333.168 431.471 335.11 432.897 336.58C434.322 338.051 436.238 338.947 438.281 339.1C440.323 339.253 442.351 338.652 443.979 337.41Z" fill="#A0616A"/>
<path d="M399.262 458.998H389.57C388.63 458.995 387.726 458.638 387.037 457.998C386.349 457.358 385.927 456.482 385.856 455.545L380.57 314.447C380.531 313.906 380.61 313.363 380.802 312.856C380.995 312.349 381.295 311.891 381.684 311.512C382.072 311.133 382.538 310.844 383.05 310.665C383.561 310.485 384.106 310.419 384.646 310.472L440.702 316.423C441.61 316.511 442.454 316.931 443.074 317.601C443.694 318.271 444.046 319.145 444.064 320.057L445.238 382.298C445.244 382.635 445.31 382.97 445.432 383.285L468.426 442.892C468.604 443.353 468.688 443.844 468.674 444.337C468.66 444.831 468.548 445.316 468.344 445.766C468.141 446.216 467.85 446.62 467.488 446.957C467.127 447.293 466.702 447.554 466.239 447.724L456.417 451.342C455.564 451.656 454.625 451.647 453.778 451.317C452.931 450.988 452.234 450.36 451.818 449.552L423.57 394.646C423.416 394.348 423.304 394.03 423.236 393.701L418.41 370.46C418.27 369.786 417.895 369.184 417.351 368.762C416.807 368.339 416.131 368.124 415.443 368.156C414.756 368.187 414.101 368.462 413.598 368.931C413.095 369.401 412.775 370.034 412.697 370.718L402.963 455.699C402.859 456.607 402.424 457.445 401.742 458.054C401.059 458.662 400.177 458.998 399.262 458.998Z" fill="#2F2E41"/>
<path d="M404.089 204.121C415.315 204.121 424.415 195.024 424.415 183.802C424.415 172.58 415.315 163.483 404.089 163.483C392.863 163.483 383.763 172.58 383.763 183.802C383.763 195.024 392.863 204.121 404.089 204.121Z" fill="#A0616A"/>
<path d="M418.028 327.348C404.244 327.196 390.789 323.122 379.237 315.602L379.04 315.465L379.06 315.226L386.835 224.709C387.103 221.638 388.474 218.768 390.695 216.629C392.916 214.491 395.837 213.229 398.917 213.076C408.993 212.613 422.528 213.197 429.774 218.591C440.723 226.743 446.001 239.02 444.253 252.271C440.628 279.752 444.734 316.823 445.214 320.959L445.249 321.258L444.976 321.383C436.535 325.308 427.338 327.344 418.028 327.348Z" fill="#0083FA"/>
<path d="M445.12 321.113C444.547 321.112 443.981 320.992 443.456 320.762C442.932 320.531 442.461 320.193 442.074 319.771L437.628 314.922C437.147 314.395 436.811 313.754 436.65 313.059C436.489 312.364 436.51 311.64 436.71 310.956L446.848 276.654L431.422 244.271C430.702 242.755 430.526 241.038 430.923 239.407C431.273 237.976 432.049 236.685 433.148 235.703C434.247 234.721 435.618 234.096 437.081 233.909C438.543 233.723 440.027 233.983 441.338 234.657C442.649 235.331 443.725 236.386 444.423 237.683L465.357 271.636C466.207 273.014 466.706 274.579 466.81 276.194C466.914 277.809 466.619 279.425 465.952 280.9L448.896 318.678C448.615 319.302 448.183 319.847 447.639 320.263C447.095 320.679 446.456 320.953 445.779 321.06C445.561 321.095 445.341 321.113 445.12 321.113Z" fill="#0083FA"/>
<path d="M301.849 255.589C302.825 256.314 303.948 256.817 305.14 257.062C306.332 257.307 307.563 257.288 308.746 257.006C309.93 256.723 311.037 256.185 311.989 255.429C312.942 254.673 313.718 253.717 314.261 252.629L343.589 256.431L336.849 242.625L310.032 241.131C308.143 240.34 306.029 240.269 304.091 240.932C302.153 241.594 300.525 242.944 299.517 244.727C298.508 246.509 298.188 248.599 298.618 250.601C299.048 252.602 300.197 254.377 301.849 255.589Z" fill="#A0616A"/>
<path d="M366.492 263.129C365.981 263.129 365.471 263.094 364.965 263.023L318.827 256.627C318.073 256.523 317.356 256.234 316.742 255.784C316.128 255.335 315.635 254.74 315.309 254.053C315.203 253.831 315.115 253.602 315.046 253.367C314.867 252.756 314.817 252.115 314.899 251.484C314.981 250.853 315.193 250.246 315.521 249.701L319.34 243.373C319.75 242.697 320.328 242.137 321.017 241.748C321.706 241.359 322.484 241.153 323.275 241.151H323.282L363.498 241.197L393.534 214.296C394.932 213.048 396.716 212.317 398.589 212.228C400.232 212.152 401.861 212.576 403.259 213.444C404.657 214.311 405.759 215.582 406.419 217.089C407.08 218.595 407.269 220.267 406.96 221.882C406.651 223.498 405.86 224.982 404.69 226.139L374.719 259.461C373.682 260.615 372.413 261.538 370.996 262.17C369.578 262.802 368.044 263.129 366.492 263.129Z" fill="#0083FA"/>
<path d="M406.399 201.878C408.257 197.581 409.829 191.858 406.266 188.82C404.199 187.057 401.223 187.054 398.515 186.834C390.887 186.217 383.035 182.708 379.307 176.027C375.578 169.346 377.66 159.412 384.694 156.398C389.436 154.366 394.871 155.75 399.834 157.157L414.736 161.381C419.163 162.636 423.812 164.02 426.999 167.338C432.083 172.631 431.703 181.577 427.665 187.704C423.628 193.831 417.547 200.222 410.586 202.548L406.399 201.878Z" fill="#2F2E41"/>
<path d="M611.98 479H0.985311C0.855668 479 0.72723 478.975 0.607347 478.926C0.487465 478.876 0.378506 478.804 0.286702 478.712C0.194898 478.621 0.122056 478.512 0.0723573 478.392C0.0226583 478.273 -0.00292969 478.144 -0.00292969 478.015C-0.00292969 477.885 0.0226583 477.757 0.0723573 477.637C0.122056 477.518 0.194898 477.409 0.286702 477.317C0.378506 477.226 0.487465 477.153 0.607347 477.104C0.72723 477.055 0.855668 477.029 0.985311 477.03H611.98C612.11 477.029 612.238 477.055 612.358 477.104C612.478 477.153 612.587 477.226 612.679 477.317C612.771 477.409 612.843 477.518 612.893 477.637C612.943 477.757 612.968 477.885 612.968 478.015C612.968 478.144 612.943 478.273 612.893 478.392C612.843 478.512 612.771 478.621 612.679 478.712C612.587 478.804 612.478 478.876 612.358 478.926C612.238 478.975 612.11 479 611.98 479Z" fill="#3F3D56"/>
</g>
<path opacity="0.1" d="M564.987 43.7242C446.165 -43.0645 420.159 50.8627 284.075 23.8117C147.991 -3.23935 187 188.56 165.254 297.14C143.507 405.719 284.075 400.272 374.872 458.131C465.67 515.99 703.089 394.824 621.034 269.901C538.98 144.978 683.808 130.513 564.987 43.7242Z" fill="#0083FA"/>
<defs>
<clipPath id="clip0_133_32">
<rect width="680" height="479" fill="white"/>
</clipPath>
</defs>
</svg>
