<svg width="579" height="437" viewBox="0 0 579 437" fill="none" xmlns="http://www.w3.org/2000/svg">
<g clip-path="url(#clip0_133_394)">
<path opacity="0.1" d="M444.826 36.0083C338.762 -42.2316 315.548 42.4437 194.075 18.0572C72.6023 -6.32926 107.423 166.577 88.0116 264.462C68.5997 362.347 194.075 357.435 275.124 409.596C356.173 461.756 568.1 352.524 494.856 239.906C421.612 127.288 550.889 114.248 444.826 36.0083Z" fill="#0083FA"/>
<path d="M334.068 21.2689C339.026 31.836 328.519 34.8292 316.484 40.4931C304.449 46.1569 295.443 52.3467 290.485 41.7796C285.526 31.2124 281.503 10.2385 298.529 2.22601C316.142 -6.06253 329.109 10.7017 334.068 21.2689Z" fill="#2F2E41"/>
<path d="M309.512 42.0502C318.461 42.0502 325.714 34.7855 325.714 25.8241C325.714 16.8626 318.461 9.5979 309.512 9.5979C300.564 9.5979 293.311 16.8626 293.311 25.8241C293.311 34.7855 300.564 42.0502 309.512 42.0502Z" fill="#FFB8B8"/>
<path d="M389.78 97.7841C389.219 97.0508 388.658 96.3307 388.091 95.6304C387.359 94.7187 386.622 93.8356 385.881 92.9812C377.484 83.2763 368.552 77.1653 358.716 76.5113H358.703L358.558 76.498L338.959 95.6304L332.297 102.131L332.442 102.488L336.037 111.453H399.028C396.19 106.735 393.103 102.173 389.78 97.7841Z" fill="#2F2E41"/>
<path d="M291.894 32.3568L297.694 29.6274L296.886 21.2482L300.764 28.1825L303.536 26.8779L303.065 21.99L305.327 26.035L325.925 16.3416C323.99 12.2186 320.499 9.03404 316.22 7.48859C311.941 5.94314 307.225 6.16336 303.108 8.1008L300.123 9.50565C296.006 11.4431 292.826 14.9391 291.283 19.2245C289.74 23.5099 289.959 28.2337 291.894 32.3568Z" fill="#2F2E41"/>
<path d="M426.127 326.888H87.8282C84.9425 326.885 82.1759 325.735 80.1354 323.692C78.0949 321.648 76.9471 318.877 76.9438 315.987V112.407C76.9462 110.289 77.787 108.259 79.2819 106.762C80.7768 105.265 82.8036 104.423 84.9177 104.42H428.899C431.05 104.423 433.112 105.28 434.633 106.803C436.153 108.326 437.009 110.391 437.011 112.545V315.987C437.008 318.877 435.86 321.648 433.82 323.692C431.779 325.735 429.012 326.885 426.127 326.888Z" fill="#F2F2F2"/>
<path d="M98.3827 315.988H415.572C418.371 315.988 421.056 314.874 423.035 312.892C425.015 310.909 426.127 308.221 426.127 305.417V132.627C426.127 129.823 425.015 127.134 423.035 125.152C421.056 123.17 418.371 122.056 415.572 122.056H98.3827C95.5834 122.056 92.8988 123.17 90.9195 125.152C88.9401 127.134 87.8281 129.823 87.8281 132.627V305.417C87.8281 308.221 88.9401 310.909 90.9195 312.892C92.8988 314.874 95.5834 315.988 98.3827 315.988Z" fill="white"/>
<path d="M436.86 111.783H76.791V106.233C76.7952 103.334 77.9477 100.554 79.9956 98.5044C82.0436 96.4547 84.8197 95.3022 87.715 95.2998H425.936C428.831 95.3022 431.607 96.4547 433.655 98.5044C435.703 100.554 436.855 103.334 436.86 106.233V111.783Z" fill="#0083FA"/>
<path d="M96.644 106.388C98.2045 106.388 99.4695 105.121 99.4695 103.558C99.4695 101.995 98.2045 100.728 96.644 100.728C95.0834 100.728 93.8184 101.995 93.8184 103.558C93.8184 105.121 95.0834 106.388 96.644 106.388Z" fill="white"/>
<path d="M107.369 106.388C108.93 106.388 110.195 105.121 110.195 103.558C110.195 101.995 108.93 100.728 107.369 100.728C105.809 100.728 104.543 101.995 104.543 103.558C104.543 105.121 105.809 106.388 107.369 106.388Z" fill="white"/>
<path d="M118.095 106.388C119.655 106.388 120.92 105.121 120.92 103.558C120.92 101.995 119.655 100.728 118.095 100.728C116.534 100.728 115.269 101.995 115.269 103.558C115.269 105.121 116.534 106.388 118.095 106.388Z" fill="white"/>
<path d="M266.875 278.515H238.509C236.848 278.513 235.255 277.851 234.08 276.674C232.905 275.498 232.245 273.903 232.243 272.239V243.831C232.245 242.167 232.905 240.572 234.08 239.395C235.255 238.218 236.848 237.557 238.509 237.555H266.875C268.536 237.557 270.129 238.218 271.304 239.395C272.479 240.572 273.14 242.167 273.142 243.831V272.239C273.14 273.903 272.479 275.498 271.304 276.674C270.129 277.851 268.536 278.513 266.875 278.515ZM238.509 238.876C237.198 238.877 235.94 239.4 235.013 240.329C234.085 241.258 233.563 242.517 233.562 243.831V272.239C233.563 273.552 234.085 274.812 235.013 275.741C235.94 276.67 237.198 277.192 238.509 277.194H266.875C268.186 277.192 269.444 276.67 270.372 275.741C271.299 274.812 271.821 273.552 271.822 272.239V243.831C271.821 242.517 271.299 241.258 270.372 240.329C269.444 239.4 268.186 238.877 266.875 238.876H238.509Z" fill="#CCCCCC"/>
<path d="M261.268 270.587H244.117C243.592 270.586 243.089 270.377 242.718 270.006C242.347 269.634 242.138 269.131 242.138 268.605V247.464C242.138 246.939 242.347 246.435 242.718 246.064C243.089 245.692 243.592 245.483 244.117 245.482H256.544C256.995 245.483 257.432 245.637 257.784 245.92L262.507 249.721C262.739 249.906 262.925 250.141 263.053 250.409C263.181 250.676 263.247 250.969 263.247 251.266V268.605C263.246 269.131 263.038 269.634 262.667 270.006C262.296 270.377 261.792 270.586 261.268 270.587ZM244.117 246.804C243.942 246.804 243.774 246.874 243.65 246.997C243.527 247.121 243.457 247.289 243.457 247.464V268.605C243.457 268.78 243.527 268.948 243.65 269.072C243.774 269.196 243.942 269.265 244.117 269.266H261.268C261.443 269.265 261.61 269.196 261.734 269.072C261.858 268.948 261.927 268.78 261.927 268.605V251.266C261.928 251.167 261.906 251.069 261.863 250.98C261.82 250.891 261.758 250.813 261.681 250.751L256.957 246.949C256.84 246.855 256.694 246.804 256.544 246.804H244.117Z" fill="#CCCCCC"/>
<path d="M257.97 254.731H247.415C247.24 254.731 247.072 254.662 246.949 254.538C246.825 254.414 246.755 254.246 246.755 254.071C246.755 253.896 246.825 253.728 246.949 253.604C247.072 253.48 247.24 253.41 247.415 253.41H257.97C258.145 253.41 258.312 253.48 258.436 253.604C258.56 253.728 258.629 253.896 258.629 254.071C258.629 254.246 258.56 254.414 258.436 254.538C258.312 254.662 258.145 254.731 257.97 254.731Z" fill="#CCCCCC"/>
<path d="M257.97 258.695H247.415C247.24 258.695 247.072 258.626 246.949 258.502C246.825 258.378 246.755 258.21 246.755 258.035C246.755 257.859 246.825 257.691 246.949 257.568C247.072 257.444 247.24 257.374 247.415 257.374H257.97C258.145 257.374 258.312 257.444 258.436 257.568C258.56 257.691 258.629 257.859 258.629 258.035C258.629 258.21 258.56 258.378 258.436 258.502C258.312 258.626 258.145 258.695 257.97 258.695Z" fill="#CCCCCC"/>
<path d="M257.97 262.659H247.415C247.24 262.659 247.072 262.59 246.949 262.466C246.825 262.342 246.755 262.174 246.755 261.999C246.755 261.823 246.825 261.655 246.949 261.531C247.072 261.407 247.24 261.338 247.415 261.338H257.97C258.145 261.338 258.312 261.407 258.436 261.531C258.56 261.655 258.629 261.823 258.629 261.999C258.629 262.174 258.56 262.342 258.436 262.466C258.312 262.59 258.145 262.659 257.97 262.659Z" fill="#CCCCCC"/>
<path d="M334.16 278.515H305.795C304.133 278.513 302.54 277.851 301.365 276.674C300.191 275.498 299.53 273.903 299.528 272.239V243.831C299.53 242.167 300.191 240.572 301.365 239.395C302.54 238.218 304.133 237.557 305.795 237.555H334.16C335.821 237.557 337.414 238.218 338.589 239.395C339.764 240.572 340.425 242.167 340.427 243.831V272.239C340.425 273.903 339.764 275.498 338.589 276.674C337.414 277.851 335.821 278.513 334.16 278.515ZM305.795 238.876C304.483 238.877 303.225 239.4 302.298 240.329C301.37 241.258 300.849 242.517 300.847 243.831V272.239C300.849 273.552 301.37 274.812 302.298 275.741C303.225 276.67 304.483 277.192 305.795 277.194H334.16C335.472 277.192 336.729 276.67 337.657 275.741C338.584 274.812 339.106 273.552 339.107 272.239V243.831C339.106 242.517 338.584 241.258 337.657 240.329C336.729 239.4 335.472 238.877 334.16 238.876H305.795Z" fill="#CCCCCC"/>
<path d="M329.213 265.302H310.742C310.217 265.301 309.714 265.092 309.343 264.721C308.972 264.349 308.764 263.845 308.763 263.32V252.75C308.764 252.224 308.972 251.72 309.343 251.349C309.714 250.977 310.217 250.768 310.742 250.768H329.213C329.737 250.768 330.24 250.977 330.611 251.349C330.982 251.72 331.191 252.224 331.192 252.75V263.32C331.191 263.845 330.982 264.349 330.611 264.721C330.24 265.092 329.737 265.301 329.213 265.302ZM310.742 252.089C310.567 252.089 310.4 252.159 310.276 252.283C310.152 252.406 310.083 252.574 310.083 252.75V263.32C310.083 263.495 310.152 263.663 310.276 263.787C310.4 263.911 310.567 263.98 310.742 263.981H329.213C329.388 263.98 329.555 263.911 329.679 263.787C329.803 263.663 329.872 263.495 329.872 263.32V252.75C329.872 252.574 329.803 252.406 329.679 252.283C329.555 252.159 329.388 252.089 329.213 252.089H310.742Z" fill="#CCCCCC"/>
<path d="M319.977 259.778C319.607 259.778 319.243 259.674 318.929 259.479L309.073 253.31C308.925 253.217 308.82 253.069 308.781 252.898C308.742 252.727 308.772 252.548 308.865 252.4C308.957 252.251 309.105 252.146 309.275 252.106C309.445 252.067 309.624 252.097 309.773 252.189L319.628 258.358C319.733 258.423 319.854 258.458 319.978 258.458C320.101 258.458 320.222 258.423 320.327 258.358L330.182 252.189C330.331 252.097 330.51 252.067 330.68 252.106C330.85 252.146 330.998 252.251 331.09 252.4C331.183 252.548 331.213 252.727 331.174 252.898C331.135 253.069 331.03 253.217 330.882 253.31L321.027 259.479C320.712 259.675 320.348 259.778 319.977 259.778Z" fill="#CCCCCC"/>
<path d="M199.59 278.515H171.224C169.563 278.513 167.97 277.851 166.795 276.674C165.62 275.498 164.959 273.903 164.958 272.239V243.831C164.959 242.167 165.62 240.572 166.795 239.395C167.97 238.218 169.563 237.557 171.224 237.555H199.59C201.251 237.557 202.844 238.218 204.019 239.395C205.194 240.572 205.854 242.167 205.856 243.831V272.239C205.854 273.903 205.194 275.498 204.019 276.674C202.844 277.851 201.251 278.513 199.59 278.515ZM171.224 238.876C169.913 238.877 168.655 239.4 167.728 240.329C166.8 241.258 166.278 242.517 166.277 243.831V272.239C166.278 273.552 166.8 274.812 167.728 275.741C168.655 276.67 169.913 277.192 171.224 277.194H199.59C200.901 277.192 202.159 276.67 203.086 275.741C204.014 274.812 204.536 273.552 204.537 272.239V243.831C204.536 242.517 204.014 241.258 203.086 240.329C202.159 239.4 200.901 238.877 199.59 238.876H171.224Z" fill="#CCCCCC"/>
<path d="M194.642 265.302H176.172C175.647 265.301 175.144 265.092 174.773 264.721C174.402 264.349 174.193 263.845 174.193 263.32V252.75C174.193 252.224 174.402 251.72 174.773 251.349C175.144 250.977 175.647 250.768 176.172 250.768H194.642C195.167 250.768 195.67 250.977 196.041 251.349C196.412 251.72 196.621 252.224 196.621 252.75V263.32C196.621 263.845 196.412 264.349 196.041 264.721C195.67 265.092 195.167 265.301 194.642 265.302ZM176.172 252.089C175.997 252.089 175.829 252.159 175.706 252.283C175.582 252.406 175.512 252.574 175.512 252.75V263.32C175.512 263.495 175.582 263.663 175.706 263.787C175.829 263.911 175.997 263.98 176.172 263.981H194.642C194.817 263.98 194.985 263.911 195.109 263.787C195.232 263.663 195.302 263.495 195.302 263.32V252.75C195.302 252.574 195.232 252.406 195.109 252.283C194.985 252.159 194.817 252.089 194.642 252.089H176.172Z" fill="#CCCCCC"/>
<path d="M191.715 265.302H178.44C178.208 265.302 177.98 265.241 177.78 265.125C177.579 265.009 177.413 264.842 177.297 264.641C177.181 264.441 177.12 264.213 177.12 263.981C177.12 263.749 177.181 263.521 177.297 263.32L181.296 256.383C181.411 256.182 181.578 256.016 181.779 255.9C181.979 255.784 182.207 255.723 182.438 255.723C182.67 255.723 182.897 255.784 183.098 255.9C183.299 256.016 183.465 256.182 183.581 256.383L186.163 260.863L187.66 258.268C187.775 258.067 187.942 257.9 188.143 257.784C188.343 257.668 188.571 257.607 188.802 257.607C189.034 257.607 189.261 257.668 189.462 257.784C189.663 257.9 189.829 258.067 189.945 258.268L192.857 263.32C192.973 263.521 193.034 263.749 193.034 263.981C193.034 264.213 192.973 264.441 192.857 264.641C192.741 264.842 192.575 265.009 192.374 265.125C192.174 265.241 191.946 265.302 191.715 265.302ZM191.715 263.981L188.802 258.928L186.735 262.515C186.677 262.615 186.594 262.699 186.493 262.757C186.393 262.815 186.279 262.845 186.164 262.845C186.048 262.845 185.934 262.815 185.834 262.757C185.733 262.699 185.65 262.615 185.592 262.515L182.438 257.044L178.44 263.981H191.715Z" fill="#CCCCCC"/>
<path d="M192.663 256.053C193.392 256.053 193.982 255.461 193.982 254.731C193.982 254.002 193.392 253.41 192.663 253.41C191.934 253.41 191.344 254.002 191.344 254.731C191.344 255.461 191.934 256.053 192.663 256.053Z" fill="#CCCCCC"/>
<path d="M508.122 428.198L500.035 428.198L496.188 396.957L508.123 396.958L508.122 428.198Z" fill="#FFB8B8"/>
<path d="M510.184 436.049L484.107 436.048V435.718C484.107 434.383 484.37 433.061 484.88 431.828C485.39 430.595 486.138 429.474 487.08 428.53C488.023 427.586 489.142 426.838 490.373 426.327C491.604 425.816 492.924 425.553 494.257 425.553H494.258L510.185 425.554L510.184 436.049Z" fill="#2F2E41"/>
<path d="M541.105 428.198L533.018 428.198L529.17 396.957L541.106 396.958L541.105 428.198Z" fill="#FFB8B8"/>
<path d="M543.167 436.049L517.09 436.048V435.718C517.09 434.383 517.353 433.061 517.863 431.828C518.373 430.595 519.121 429.474 520.063 428.53C521.006 427.586 522.125 426.838 523.356 426.327C524.587 425.816 525.907 425.553 527.24 425.553H527.241L543.167 425.554L543.167 436.049Z" fill="#2F2E41"/>
<path d="M538.681 414.655L531.191 412.373C530.632 412.204 530.136 411.873 529.765 411.423C529.393 410.972 529.163 410.422 529.102 409.841L522.119 343.561C522.114 343.481 522.078 343.406 522.019 343.351C521.961 343.296 521.884 343.266 521.803 343.266C521.723 343.258 521.643 343.282 521.58 343.332C521.517 343.383 521.477 343.456 521.467 343.536L509.77 407.75C509.699 408.14 509.551 408.511 509.335 408.843C509.118 409.174 508.838 409.459 508.51 409.681C508.182 409.902 507.814 410.056 507.426 410.133C507.038 410.21 506.638 410.208 506.251 410.128L496.679 408.153C495.977 408.006 495.351 407.611 494.917 407.039C494.483 406.467 494.269 405.757 494.316 405.041L501.43 299.791L549.677 294.578L542.507 411.992C542.461 412.747 542.129 413.456 541.58 413.975C541.03 414.493 540.304 414.783 539.549 414.785C539.255 414.785 538.962 414.741 538.681 414.655Z" fill="#2F2E41"/>
<path d="M538.635 208.135C547.583 208.135 554.836 200.871 554.836 191.909C554.836 182.948 547.583 175.683 538.635 175.683C529.686 175.683 522.433 182.948 522.433 191.909C522.433 200.871 529.686 208.135 538.635 208.135Z" fill="#FFB8B8"/>
<path d="M501.356 300.409L511.817 234.443C512.373 230.936 513.669 227.587 515.618 224.62C517.567 221.653 520.124 219.136 523.12 217.236C526.116 215.336 529.481 214.097 532.993 213.601C536.504 213.105 540.08 213.364 543.484 214.36C549.435 216.083 554.531 219.967 557.776 225.252C561.021 230.537 562.182 236.844 561.032 242.941L550.087 301.852L501.356 300.409Z" fill="#0083FA"/>
<path d="M543.107 312.212C543.916 311.677 544.599 310.971 545.106 310.143C545.613 309.315 545.933 308.386 546.043 307.421C546.153 306.456 546.05 305.479 545.742 304.558C545.434 303.637 544.928 302.795 544.26 302.091L555.076 281.115L542.895 282.417L534.491 302.136C533.385 303.339 532.758 304.906 532.728 306.541C532.699 308.176 533.269 309.765 534.331 311.007C535.393 312.249 536.873 313.058 538.49 313.28C540.108 313.502 541.751 313.122 543.107 312.212Z" fill="#FFB8B8"/>
<path d="M545.423 298.391C544.825 298.307 544.266 298.041 543.822 297.631L539.684 293.801C539.237 293.386 538.928 292.843 538.8 292.245C538.671 291.648 538.728 291.026 538.964 290.462L547.234 270.829L546.061 232.036C546.23 230.789 546.642 229.588 547.275 228.5C547.908 227.413 548.748 226.461 549.748 225.699C550.748 224.937 551.888 224.38 553.103 224.06C554.319 223.74 555.585 223.662 556.83 223.833C558.075 224.003 559.274 224.417 560.359 225.051C561.444 225.686 562.394 226.528 563.154 227.531C563.914 228.533 564.469 229.675 564.787 230.893C565.106 232.11 565.182 233.378 565.011 234.625L567.017 259.011C567.627 266.412 565.532 273.783 561.121 279.753L548.224 297.216C547.976 297.551 547.66 297.831 547.297 298.036C546.933 298.241 546.531 298.368 546.116 298.407C545.885 298.429 545.653 298.424 545.423 298.391Z" fill="#0083FA"/>
<path d="M445.333 183.069C445.509 184.024 445.893 184.928 446.456 185.719C447.02 186.509 447.749 187.166 448.594 187.644C449.438 188.122 450.377 188.408 451.344 188.483C452.311 188.558 453.282 188.419 454.19 188.078L469.26 206.231L472.812 194.49L457.957 179.051C457.282 177.562 456.086 176.373 454.594 175.708C453.102 175.043 451.419 174.949 449.863 175.445C448.307 175.94 446.986 176.989 446.151 178.394C445.316 179.8 445.025 181.463 445.333 183.069Z" fill="#FFB8B8"/>
<path d="M457.138 190.593C457.449 190.075 457.91 189.663 458.461 189.414L463.596 187.09C464.152 186.84 464.772 186.767 465.371 186.881C465.971 186.995 466.52 187.291 466.947 187.728L481.774 203.01L517.901 217.053C518.983 217.695 519.927 218.544 520.68 219.551C521.434 220.558 521.981 221.704 522.292 222.924C522.603 224.144 522.671 225.412 522.492 226.658C522.312 227.904 521.89 229.102 521.248 230.184C520.606 231.266 519.757 232.211 518.751 232.964C517.744 233.718 516.599 234.265 515.381 234.575C514.163 234.885 512.895 234.951 511.652 234.77C510.408 234.589 509.212 234.164 508.133 233.52L484.928 225.862C477.885 223.539 471.924 218.733 468.155 212.338L457.127 193.635C456.915 193.275 456.781 192.874 456.734 192.46C456.687 192.045 456.727 191.624 456.853 191.226C456.923 191.005 457.018 190.792 457.138 190.593Z" fill="#0083FA"/>
<path opacity="0.1" d="M551.776 248.173L551.117 269.314L538.964 290.462L549.111 266.895L551.776 248.173Z" fill="black"/>
<path d="M536.778 194.959C535.761 195.091 534.73 194.849 533.877 194.278C533.024 193.707 532.407 192.845 532.14 191.852C531.884 190.71 531.321 189.659 530.513 188.813C529.706 187.966 528.683 187.356 527.555 187.047C524.583 186.367 520.951 187.768 518.773 185.513C518.307 184.998 517.969 184.38 517.789 183.708C517.608 183.037 517.589 182.333 517.734 181.653C518.135 179.462 519.7 177.806 521.404 176.482C524.988 173.708 529.326 172.085 533.849 171.824C536.19 171.756 538.532 171.873 540.855 172.173C543.287 172.327 545.692 172.767 548.021 173.485C550.675 174.487 553.033 176.144 554.878 178.301C556.723 180.458 557.995 183.046 558.577 185.826C559.109 188.614 559.028 191.485 558.337 194.238C557.647 196.992 556.365 199.561 554.581 201.767C552.446 204.431 549.692 206.531 546.56 207.884C545.813 208.237 544.959 208.28 544.181 208.005C542.23 207.228 542.549 204.808 543.438 203.194C544.39 201.466 545.855 199.794 545.089 197.691C544.705 196.717 543.969 195.922 543.026 195.468C541.087 194.477 538.918 194.711 536.833 194.953L536.778 194.959Z" fill="#2F2E41"/>
<path d="M439.919 204.122H239.382C236.497 204.119 233.73 202.969 231.69 200.925C229.649 198.882 228.501 196.111 228.498 193.221V150.279C228.501 147.389 229.649 144.618 231.69 142.575C233.73 140.531 236.497 139.382 239.382 139.378H439.919C442.804 139.382 445.571 140.531 447.611 142.575C449.652 144.618 450.8 147.389 450.803 150.279V193.221C450.8 196.111 449.652 198.882 447.611 200.925C445.571 202.969 442.804 204.119 439.919 204.122Z" fill="white"/>
<path d="M439.919 204.452H239.382C236.409 204.449 233.559 203.265 231.456 201.159C229.354 199.054 228.171 196.199 228.168 193.221V150.279C228.171 147.302 229.354 144.447 231.456 142.342C233.559 140.236 236.409 139.052 239.382 139.048H439.919C442.892 139.052 445.742 140.236 447.844 142.342C449.947 144.447 451.129 147.302 451.133 150.279V193.221C451.129 196.199 449.947 199.054 447.844 201.159C445.742 203.265 442.892 204.449 439.919 204.452ZM239.382 140.37C236.759 140.373 234.244 141.418 232.389 143.275C230.534 145.133 229.49 147.652 229.487 150.279V193.221C229.49 195.849 230.534 198.368 232.389 200.225C234.244 202.083 236.759 203.128 239.382 203.131H439.919C442.542 203.128 445.057 202.083 446.912 200.225C448.767 198.368 449.81 195.849 449.813 193.221V150.279C449.81 147.652 448.767 145.133 446.912 143.275C445.057 141.418 442.542 140.373 439.919 140.37H239.382Z" fill="#3F3D56"/>
<path d="M415.511 193.551H263.79C260.904 193.548 258.137 192.399 256.097 190.355C254.056 188.312 252.909 185.541 252.905 182.651V160.189C252.909 157.299 254.056 154.528 256.097 152.484C258.137 150.441 260.904 149.291 263.79 149.288H415.511C418.397 149.291 421.164 150.441 423.204 152.484C425.245 154.528 426.392 157.299 426.396 160.189V182.651C426.392 185.541 425.245 188.312 423.204 190.355C421.164 192.399 418.397 193.548 415.511 193.551Z" fill="#F2F2F2"/>
<path d="M296.439 181.445C303.628 181.445 309.456 175.608 309.456 168.409C309.456 161.209 303.628 155.373 296.439 155.373C289.251 155.373 283.423 161.209 283.423 168.409C283.423 175.608 289.251 181.445 296.439 181.445Z" fill="#FF6584"/>
<path d="M406.082 192.236L387.709 176.803L369.653 161.637C369.177 161.237 368.574 161.018 367.953 161.02C367.331 161.021 366.729 161.242 366.254 161.644L348.257 176.88L343.861 180.601L337.232 175.034L317.088 158.114C316.612 157.714 316.009 157.495 315.387 157.496C314.766 157.497 314.164 157.718 313.689 158.12L293.61 175.118L273.216 192.383C273.112 192.47 273.038 192.587 273.004 192.718C272.969 192.849 272.976 192.988 273.022 193.115C273.069 193.242 273.154 193.352 273.265 193.429C273.376 193.507 273.508 193.548 273.643 193.548L315.457 193.467L328.692 193.442L328.562 193.551L368.015 193.475L405.66 193.403C405.795 193.403 405.927 193.361 406.038 193.283C406.148 193.205 406.233 193.095 406.279 192.967C406.325 192.84 406.331 192.702 406.296 192.571C406.261 192.44 406.186 192.323 406.082 192.236Z" fill="#3F3D56"/>
<path d="M578.34 437H451.686C451.511 437 451.343 436.93 451.219 436.806C451.095 436.683 451.026 436.515 451.026 436.339C451.026 436.164 451.095 435.996 451.219 435.872C451.343 435.748 451.511 435.679 451.686 435.679H578.34C578.515 435.679 578.683 435.748 578.807 435.872C578.93 435.996 579 436.164 579 436.339C579 436.515 578.93 436.683 578.807 436.806C578.683 436.93 578.515 437 578.34 437Z" fill="#CCCCCC"/>
<path d="M399.431 87.1473C398.904 86.2898 398.208 85.5489 397.386 84.9696C396.563 84.3903 395.632 83.9849 394.648 83.778C394.288 83.7021 393.921 83.6557 393.553 83.6392L343.294 38.6359C342.306 37.6197 340.99 36.9896 339.58 36.8588C339.302 36.8268 339.022 36.818 338.742 36.8324C337.582 36.8852 336.463 37.2752 335.522 37.9548C334.58 38.6343 333.856 39.574 333.439 40.6589C333.022 41.7439 332.929 42.927 333.173 44.0636C333.417 45.2003 333.986 46.2412 334.81 47.0592L354.053 63.8595L385.65 91.4415C385.676 91.961 385.754 92.4766 385.881 92.9808C386.259 94.4414 387.072 95.7524 388.211 96.7399C389.35 97.7275 390.762 98.3449 392.26 98.5104C393.626 98.6702 395.009 98.4412 396.251 97.8497C397.236 97.3885 398.109 96.7191 398.811 95.8876C398.883 95.8017 398.949 95.7225 399.015 95.63C399.938 94.4261 400.472 92.9692 400.546 91.4536C400.62 89.938 400.231 88.4357 399.431 87.1473Z" fill="#FFB8B8"/>
<path d="M313.464 130.519L312.996 111.453L312.6 95.6302L312.329 84.5577L311.795 62.9744C311.689 61.8188 311.25 60.719 310.531 59.8093C309.811 58.8996 308.843 58.2194 307.744 57.8516C306.645 57.4838 305.463 57.4444 304.342 57.7382C303.221 58.0319 302.21 58.6462 301.432 59.506C301.248 59.7024 301.083 59.9146 300.937 60.1402C300.125 61.3051 299.759 62.7242 299.908 64.1371L301.082 95.6302L301.669 111.453L302.421 131.635C302.204 131.932 302.008 132.243 301.834 132.567C301.365 133.458 301.082 134.435 301.001 135.439C300.921 136.443 301.045 137.453 301.366 138.407C301.701 139.408 302.244 140.326 302.959 141.102C303.675 141.877 304.546 142.492 305.516 142.906C306.485 143.32 307.532 143.523 308.586 143.503C309.639 143.482 310.677 143.238 311.63 142.787C312.737 142.263 313.698 141.474 314.428 140.49C315.158 139.505 315.635 138.356 315.816 137.143C315.997 135.931 315.878 134.692 315.467 133.536C315.057 132.381 314.369 131.345 313.464 130.519Z" fill="#FFB8B8"/>
<path d="M358.717 76.5111L354.053 63.8597L346.506 43.3664C345.962 41.8753 345.089 40.5262 343.953 39.4191C342.816 38.312 341.446 37.4754 339.942 36.9714C339.824 36.9317 339.699 36.8921 339.58 36.859C338.124 36.4164 336.589 36.2946 335.081 36.5022C333.574 36.7097 332.129 37.2417 330.846 38.0614L305.429 54.2076C303.101 55.6829 301.437 58.0067 300.789 60.6879C300.14 63.3691 300.557 66.1979 301.953 68.5767C305.131 74.081 308.595 79.4153 312.329 84.5577C315.291 88.5943 320.806 89.0237 321.762 95.6302H340.503L359.475 78.5723L358.717 76.5111Z" fill="#CCCCCC"/>
<path d="M67.6936 231.13C76.1355 231.13 82.979 224.276 82.979 215.821C82.979 207.367 76.1355 200.513 67.6936 200.513C59.2517 200.513 52.4082 207.367 52.4082 215.821C52.4082 224.276 59.2517 231.13 67.6936 231.13Z" fill="#A0616A"/>
<path d="M105.219 205.284C105.37 205.404 105.516 205.532 105.657 205.666C106.36 206.329 106.914 207.132 107.285 208.024C107.655 208.916 107.833 209.877 107.807 210.843C107.781 211.808 107.552 212.758 107.134 213.629C106.716 214.499 106.119 215.272 105.382 215.895C105.211 216.04 105.031 216.175 104.846 216.301L105.88 251.279C105.909 252.424 105.569 253.548 104.911 254.484C104.252 255.42 103.309 256.119 102.222 256.476L102.159 256.489L73.8013 259.514C73.0303 259.596 72.2508 259.524 71.5076 259.303C70.7644 259.082 70.0724 258.715 69.4715 258.225C68.8706 257.734 68.3726 257.129 68.0065 256.445C67.6403 255.76 67.4131 255.01 67.3381 254.237C67.2631 253.464 67.3417 252.684 67.5693 251.942C67.797 251.2 68.1692 250.51 68.6645 249.912C69.1598 249.315 69.7684 248.822 70.455 248.461C71.1417 248.101 71.8929 247.88 72.6653 247.812L92.88 246.029L96.376 215.738C96.1473 215.535 95.9331 215.316 95.7351 215.084C94.639 213.784 94.0641 212.124 94.122 210.424C94.18 208.724 94.8667 207.106 96.0488 205.885C97.2308 204.664 98.8239 203.926 100.519 203.815C102.213 203.704 103.889 204.228 105.219 205.284Z" fill="#A0616A"/>
<path d="M92.8685 428.875H100.499L104.128 399.401H92.8672L92.8685 428.875Z" fill="#A0616A"/>
<path d="M90.9224 426.38L105.948 426.379C107.206 426.379 108.451 426.627 109.613 427.109C110.775 427.591 111.831 428.298 112.72 429.188C113.609 430.079 114.314 431.136 114.795 432.299C115.277 433.463 115.524 434.71 115.524 435.969V436.281L90.9228 436.282L90.9224 426.38Z" fill="#2F2E41"/>
<path d="M17.0327 418.31L23.5884 422.219L41.764 398.755L32.0881 392.985L17.0327 418.31Z" fill="#A0616A"/>
<path d="M16.6351 415.169L29.5458 422.868C30.6262 423.512 31.5699 424.364 32.3219 425.373C33.074 426.382 33.6201 427.53 33.9292 428.751C34.2383 429.972 34.3042 431.241 34.1233 432.488C33.9424 433.734 33.5182 434.932 32.8748 436.014L32.7156 436.282L11.5771 423.677L16.6351 415.169Z" fill="#2F2E41"/>
<path d="M102.299 418.465H93.7554C93.0636 418.466 92.3959 418.21 91.8815 417.747C91.3672 417.283 91.0426 416.646 90.9706 415.956L82.3573 334.87C82.3356 334.666 82.2474 334.475 82.1064 334.326C81.9653 334.177 81.7793 334.079 81.5769 334.046C81.3745 334.014 81.1671 334.049 80.9866 334.146C80.8061 334.243 80.6626 334.397 80.5781 334.584L65.0396 369.043L37.5295 413.969C37.1734 414.544 36.6221 414.973 35.9766 415.175C35.331 415.377 34.6344 415.339 34.0142 415.069L23.0241 410.226C22.6607 410.066 22.3355 409.83 22.07 409.535C21.8045 409.239 21.6048 408.89 21.4841 408.512C21.3634 408.133 21.3245 407.733 21.37 407.337C21.4155 406.942 21.5442 406.562 21.7478 406.22L47.0372 363.812L54.7933 328.081C52.3539 312.585 62.8114 289.548 62.9175 289.317L62.9693 289.204L91.775 277.928L91.9194 278.105C103.28 315.441 110.202 355.62 105.091 415.895C105.028 416.594 104.707 417.245 104.191 417.72C103.674 418.195 103 418.461 102.299 418.465Z" fill="#2F2E41"/>
<path d="M61.8085 292.98L61.6743 292.697C61.6102 292.562 55.205 279.033 50.2675 264.573C49.3186 261.776 48.9598 258.813 49.214 255.871C49.4682 252.928 50.3298 250.071 51.7442 247.479C53.177 244.861 55.1371 242.569 57.5004 240.749C59.8637 238.929 62.5787 237.621 65.4734 236.906C70.4987 235.7 75.7894 236.342 80.3818 238.715C84.9741 241.088 88.5623 245.034 90.4928 249.835C94.4094 259.644 93.1611 270.113 91.9865 278.347L91.9631 278.512L91.8133 278.583L61.8085 292.98Z" fill="#3F3D56"/>
<path d="M86.227 207.174H61.9556V196.579C67.2829 194.459 72.4959 192.656 75.6471 196.579C78.4531 196.579 81.1441 197.695 83.1282 199.682C85.1123 201.669 86.2269 204.364 86.227 207.174Z" fill="#2F2E41"/>
<path d="M60.6118 194.709C46.1019 194.709 42.0405 212.924 42.0405 223.2C42.0405 228.93 44.6284 230.98 48.6949 231.674L50.131 224.003L53.4946 232.004C54.6369 232.01 55.8369 231.987 57.081 231.964L58.2215 229.612L60.7646 231.922C70.9503 231.937 79.1827 233.424 79.1827 223.2C79.1827 212.924 75.6209 194.709 60.6118 194.709Z" fill="#2F2E41"/>
<path d="M128.274 437H1.61913C1.44418 437 1.27639 436.93 1.15268 436.806C1.02897 436.683 0.959473 436.515 0.959473 436.339C0.959473 436.164 1.02897 435.996 1.15268 435.872C1.27639 435.748 1.44418 435.679 1.61913 435.679H128.274C128.449 435.679 128.616 435.748 128.74 435.872C128.864 435.996 128.933 436.164 128.933 436.339C128.933 436.515 128.864 436.683 128.74 436.806C128.616 436.93 128.449 437 128.274 437Z" fill="#CCCCCC"/>
<path d="M130.655 219.647H102.29C100.628 219.645 99.0354 218.983 97.8605 217.807C96.6857 216.63 96.0248 215.035 96.0229 213.371V184.963C96.0248 183.299 96.6857 181.704 97.8605 180.527C99.0354 179.351 100.628 178.689 102.29 178.687H130.655C132.317 178.689 133.909 179.351 135.084 180.527C136.259 181.704 136.92 183.299 136.922 184.963V213.371C136.92 215.035 136.259 216.63 135.084 217.807C133.909 218.983 132.317 219.645 130.655 219.647Z" fill="white"/>
<path d="M130.655 219.647H102.29C100.628 219.645 99.0354 218.983 97.8605 217.807C96.6857 216.63 96.0248 215.035 96.0229 213.371V184.963C96.0248 183.299 96.6857 181.704 97.8605 180.527C99.0354 179.351 100.628 178.689 102.29 178.687H130.655C132.317 178.689 133.909 179.351 135.084 180.527C136.259 181.704 136.92 183.299 136.922 184.963V213.371C136.92 215.035 136.259 216.63 135.084 217.807C133.909 218.983 132.317 219.645 130.655 219.647ZM102.29 180.008C100.978 180.01 99.7205 180.532 98.793 181.461C97.8655 182.39 97.3437 183.649 97.3423 184.963V213.371C97.3437 214.685 97.8655 215.944 98.793 216.873C99.7205 217.802 100.978 218.324 102.29 218.326H130.655C131.967 218.324 133.224 217.802 134.152 216.873C135.079 215.944 135.601 214.685 135.602 213.371V184.963C135.601 183.649 135.079 182.39 134.152 181.461C133.224 180.532 131.967 180.01 130.655 180.008H102.29Z" fill="#3F3D56"/>
<path d="M125.708 208.086H107.237C106.713 208.085 106.21 207.876 105.839 207.505C105.468 207.133 105.259 206.63 105.258 206.104V192.23C105.259 191.705 105.468 191.201 105.839 190.83C106.21 190.458 106.713 190.249 107.237 190.249H112.437C112.775 190.247 113.108 190.333 113.403 190.499C113.698 190.664 113.946 190.902 114.122 191.191L115.573 193.552H125.708C126.232 193.552 126.735 193.761 127.106 194.133C127.477 194.504 127.686 195.008 127.687 195.534V206.104C127.686 206.63 127.477 207.133 127.106 207.505C126.735 207.876 126.232 208.085 125.708 208.086Z" fill="#0083FA"/>
<path d="M125.107 215.095C125.199 215.264 125.284 215.438 125.362 215.617C125.753 216.5 125.953 217.456 125.948 218.423C125.944 219.389 125.736 220.343 125.338 221.223C124.94 222.103 124.361 222.889 123.638 223.529C122.916 224.169 122.066 224.649 121.146 224.938C120.931 225.004 120.714 225.059 120.494 225.103L107.895 257.742C107.478 258.808 106.729 259.712 105.759 260.319C104.789 260.926 103.65 261.203 102.51 261.11L102.446 261.098L75.1386 252.865C74.3962 252.641 73.7054 252.272 73.1061 251.78C72.5068 251.287 72.011 250.68 71.6472 249.994C71.2834 249.309 71.0588 248.557 70.9865 247.784C70.9142 247.011 70.9956 246.231 71.2259 245.49C71.4562 244.748 71.8309 244.06 72.3283 243.464C72.8258 242.869 73.4362 242.378 74.1242 242.02C74.8122 241.661 75.5643 241.443 76.3369 241.378C77.1095 241.313 77.8874 241.401 78.6256 241.639L97.9473 247.851L112.906 221.292C112.774 221.016 112.661 220.732 112.569 220.44C112.062 218.817 112.176 217.063 112.888 215.519C113.6 213.975 114.859 212.751 116.422 212.085C117.985 211.418 119.739 211.357 121.344 211.914C122.948 212.47 124.29 213.604 125.107 215.095Z" fill="#A0616A"/>
<circle cx="556.5" cy="89.5" r="22.5" fill="#E6F3FF"/>
</g>
<defs>
<clipPath id="clip0_133_394">
<rect width="578.041" height="437" fill="white" transform="translate(0.959473)"/>
</clipPath>
</defs>
</svg>
