<svg width="63" height="61" viewBox="0 0 63 61" fill="none" xmlns="http://www.w3.org/2000/svg">
<rect y="0.5" width="63" height="60" rx="30" fill="#0083FA" fill-opacity="0.2"/>
<g clip-path="url(#clip0_421_27)">
<path d="M15.6823 16.2889C15.0973 15.8245 14.248 15.9321 13.7867 16.5212C13.3255 17.1102 13.4323 17.9655 14.0173 18.43L47.3173 44.7112C47.9023 45.1757 48.7517 45.068 49.2129 44.479C49.6742 43.8899 49.5673 43.0346 48.9823 42.5702L41.0229 36.2887L46.1136 31.1628C49.2917 27.9626 49.2917 22.78 46.1136 19.5798C43.3011 16.7477 38.8686 16.3796 35.6342 18.7075L35.5442 18.7698C34.7342 19.3532 34.5486 20.486 35.1279 21.296C35.7073 22.1059 36.8323 22.2985 37.6367 21.7151L37.7267 21.6528C39.5323 20.3557 42.0017 20.5596 43.5654 22.1399C45.3373 23.9241 45.3373 26.8128 43.5654 28.5969L38.1654 34.0344L36.3711 32.6184C37.7379 29.5712 37.1304 25.9178 34.7061 23.4766C31.7698 20.5143 27.1404 20.2934 23.9454 22.8139L15.6823 16.2889ZM26.9436 25.1759C28.6367 24.3319 30.7517 24.6151 32.1636 26.0425C33.2886 27.1753 33.7104 28.7782 33.3842 30.2622L26.9436 25.1759ZM36.3711 39.5852L25.9254 31.293C25.8073 33.5473 26.6117 35.83 28.2992 37.5235C30.4873 39.7268 33.6092 40.4122 36.3767 39.5796L36.3711 39.5852ZM20.0586 26.6428L16.8861 29.8374C13.708 33.0376 13.708 38.2202 16.8861 41.4204C19.6986 44.2524 24.1311 44.6206 27.3654 42.2926L27.4554 42.2303C28.2654 41.6469 28.4511 40.5141 27.8717 39.7042C27.2923 38.8942 26.1673 38.7016 25.3629 39.285L25.2729 39.3473C23.4673 40.6444 20.998 40.4405 19.4342 38.8602C17.6623 37.0704 17.6623 34.1817 19.4342 32.3975L22.9104 28.8971L20.0642 26.6372L20.0586 26.6428Z" fill="#0083FA"/>
</g>
<defs>
<clipPath id="clip0_421_27">
<rect width="36" height="29" fill="white" transform="translate(13.5 16)"/>
</clipPath>
</defs>
</svg>
