<svg width="63" height="61" viewBox="0 0 63 61" fill="none" xmlns="http://www.w3.org/2000/svg">
<rect y="0.5" width="63" height="60" rx="30" fill="#0083FA" fill-opacity="0.2"/>
<g clip-path="url(#clip0_421_37)">
<path d="M31.5 15C32.5786 15 33.45 15.8658 33.45 16.9375V20.8125H40.7625C43.1878 20.8125 45.15 22.7621 45.15 25.1719V41.6406C45.15 44.0504 43.1878 46 40.7625 46H22.2375C19.8122 46 17.85 44.0504 17.85 41.6406V25.1719C17.85 22.7621 19.8122 20.8125 22.2375 20.8125H29.55V16.9375C29.55 15.8658 30.4214 15 31.5 15ZM24.675 38.25C24.1388 38.25 23.7 38.6859 23.7 39.2188C23.7 39.7516 24.1388 40.1875 24.675 40.1875H26.625C27.1613 40.1875 27.6 39.7516 27.6 39.2188C27.6 38.6859 27.1613 38.25 26.625 38.25H24.675ZM30.525 38.25C29.9888 38.25 29.55 38.6859 29.55 39.2188C29.55 39.7516 29.9888 40.1875 30.525 40.1875H32.475C33.0113 40.1875 33.45 39.7516 33.45 39.2188C33.45 38.6859 33.0113 38.25 32.475 38.25H30.525ZM36.375 38.25C35.8388 38.25 35.4 38.6859 35.4 39.2188C35.4 39.7516 35.8388 40.1875 36.375 40.1875H38.325C38.8613 40.1875 39.3 39.7516 39.3 39.2188C39.3 38.6859 38.8613 38.25 38.325 38.25H36.375ZM28.0875 30.5C28.0875 29.8577 27.8307 29.2417 27.3736 28.7875C26.9165 28.3333 26.2965 28.0781 25.65 28.0781C25.0035 28.0781 24.3835 28.3333 23.9264 28.7875C23.4693 29.2417 23.2125 29.8577 23.2125 30.5C23.2125 31.1423 23.4693 31.7583 23.9264 32.2125C24.3835 32.6667 25.0035 32.9219 25.65 32.9219C26.2965 32.9219 26.9165 32.6667 27.3736 32.2125C27.8307 31.7583 28.0875 31.1423 28.0875 30.5ZM37.35 32.9219C37.9965 32.9219 38.6165 32.6667 39.0736 32.2125C39.5307 31.7583 39.7875 31.1423 39.7875 30.5C39.7875 29.8577 39.5307 29.2417 39.0736 28.7875C38.6165 28.3333 37.9965 28.0781 37.35 28.0781C36.7035 28.0781 36.0835 28.3333 35.6264 28.7875C35.1693 29.2417 34.9125 29.8577 34.9125 30.5C34.9125 31.1423 35.1693 31.7583 35.6264 32.2125C36.0835 32.6667 36.7035 32.9219 37.35 32.9219ZM14.925 28.5625H15.9V40.1875H14.925C13.3102 40.1875 12 38.8857 12 37.2812V31.4688C12 29.8643 13.3102 28.5625 14.925 28.5625ZM48.075 28.5625C49.6898 28.5625 51 29.8643 51 31.4688V37.2812C51 38.8857 49.6898 40.1875 48.075 40.1875H47.1V28.5625H48.075Z" fill="#0083FA"/>
</g>
<defs>
<clipPath id="clip0_421_37">
<rect width="39" height="31" fill="white" transform="translate(12 15)"/>
</clipPath>
</defs>
</svg>
