<svg width="63" height="61" viewBox="0 0 63 61" fill="none" xmlns="http://www.w3.org/2000/svg">
<rect y="0.5" width="63" height="60" rx="30" fill="#0083FA" fill-opacity="0.2"/>
<path d="M37.5891 34.1875C43.1963 34.1875 47.7379 30.0621 47.7379 24.9688C47.7379 24.0872 47.5984 23.2345 47.3446 22.4221C47.148 21.7998 46.3044 21.6615 45.8033 22.1167L40.9319 26.5417C40.7416 26.7146 40.4815 26.8125 40.2151 26.8125H36.5742C36.016 26.8125 35.5593 26.3977 35.5593 25.8906V22.5834C35.5593 22.3414 35.6672 22.1052 35.8575 21.9323L40.7289 17.5073C41.23 17.0521 41.0714 16.2858 40.3927 16.1072C39.4983 15.8768 38.5596 15.75 37.5891 15.75C31.9819 15.75 27.4403 19.8754 27.4403 24.9688C27.4403 26.0692 27.656 27.1294 28.0429 28.1089L16.524 38.5722C15.7184 39.3039 15.2617 40.3007 15.2617 41.3378C15.2617 43.4984 17.19 45.25 19.5686 45.25C20.7104 45.25 21.8077 44.8352 22.6133 44.1034L34.1322 33.6401C35.2105 33.9974 36.3776 34.1875 37.5891 34.1875ZM20.3361 39.2578C20.7399 39.2578 21.1271 39.4035 21.4126 39.6628C21.6981 39.9222 21.8584 40.2739 21.8584 40.6406C21.8584 41.0074 21.6981 41.3591 21.4126 41.6184C21.1271 41.8777 20.7399 42.0234 20.3361 42.0234C19.9324 42.0234 19.5452 41.8777 19.2597 41.6184C18.9742 41.3591 18.8138 41.0074 18.8138 40.6406C18.8138 40.2739 18.9742 39.9222 19.2597 39.6628C19.5452 39.4035 19.9324 39.2578 20.3361 39.2578Z" fill="#0086FF"/>
</svg>
